<svg id="Слой_1" data-name="Слой 1" xmlns="http://www.w3.org/2000/svg" viewBox="0 0 270.37976 270.37976"><defs><style>.cls-1{fill:#ccc;}</style></defs><title>sign_monochrome</title><path class="cls-1" d="M360.03925,249.99677S342.715,228.333,319.20569,221.3346c11.67786-21.57294,8.60382-49.14728,8.60382-49.14728s-27.57434-3.074-49.14728,8.60364C271.66376,157.28168,250,139.95758,250,139.95758s-21.66376,17.3241-28.66223,40.83337c-21.57294-11.67767-49.14728-8.60364-49.14728-8.60364s-3.074,27.57434,8.60382,49.14728c-23.50934,6.99841-40.83356,28.66217-40.83356,28.66217s17.32416,21.66382,40.8335,28.66229c-11.67786,21.57294-8.60376,49.14722-8.60376,49.14722s27.57428,3.074,49.14722-8.60376C228.33618,342.71185,250,360.036,250,360.036s21.66382-17.32416,28.66229-40.8335c21.57294,11.6778,49.14722,8.60376,49.14722,8.60376s3.0741-27.57428-8.60376-49.14722C342.71509,271.66058,360.03925,249.99677,360.03925,249.99677Zm-81.18317,36.40741c-.35193.2793-.71.55115-1.07.82043-.15393.11511-.30676.23163-.46216.34485-.35077.25562-.70721.50385-1.06531.74982-.1748.12006-.34863.24127-.52521.35895-.34131.2276-.68768.44818-1.03522.66693-.20288.12762-.40515.25635-.61017.38092-.32587.19818-.65613.38953-.98712.5799-.23566.13538-.471.27136-.70929.40271-.3053.16846-.61432.33069-.92377.49249-.27368.14288-.54736.28577-.82422.42328-.27911.13886-.56122.27228-.84344.40564-.31537.14886-.63123.29675-.95044.43866-.25067.11163-.50378.21857-.75677.32587-.35883.15186-.71869.30176-1.082.44482-.21918.08643-.44019.16907-.66095.25226-.4032.15167-.808.30011-1.21643.4408-.18884.06512-.379.12732-.56891.19006-.44537.14691-.89276.28925-1.344.423-.15979.04742-.32056.09253-.48108.13831-.485.138-.9726.27008-1.464.39264-.133.03326-.2666.06464-.40009.09674q-.78259.18777-1.57477.35034c-.10925.02228-.219.04321-.32849.0647q-.82919.16232-1.66834.29608c-.0921.01459-.18451.02826-.27679.0423q-.86636.13147-1.7428.23169a45.44263,45.44263,0,0,1-10.5686,0q-.87653-.09933-1.7428-.23169c-.09229-.014-.18469-.02771-.27679-.0423q-.83945-.13257-1.66833-.29608c-.1095-.02148-.21924-.04242-.32849-.0647q-.79266-.16113-1.57477-.35034c-.13348-.0321-.26709-.06348-.40009-.09674-.49139-.12256-.97894-.25464-1.464-.39264-.16052-.04578-.32129-.09088-.48108-.13831-.45123-.13373-.89862-.27606-1.344-.423-.18988-.06274-.38007-.12494-.56891-.19006-.40845-.14069-.81323-.28912-1.21643-.4408-.22076-.08319-.44177-.16583-.66095-.25226-.36334-.14307-.72321-.293-1.082-.44482-.253-.1073-.5061-.21423-.75677-.32587-.31921-.14191-.63507-.28979-.95044-.43866-.28223-.13336-.56433-.26678-.84344-.40564-.27686-.13751-.55054-.2804-.82422-.42328-.30945-.1618-.61847-.324-.92377-.49249-.23828-.13135-.47363-.26733-.70929-.40271-.331-.19037-.66125-.38171-.98712-.5799-.205-.12457-.40729-.2533-.61017-.38092-.34753-.21875-.69391-.43933-1.03522-.66693-.17657-.11768-.3504-.23889-.52521-.35895-.35809-.246-.71454-.4942-1.06531-.74982-.1554-.11322-.30823-.22974-.46216-.34485-.36-.26929-.71808-.54114-1.07-.82043a46.71845,46.71845,0,0,1-7.55078-7.55151c-.27893-.35144-.55035-.709-.81921-1.0686-.1156-.1546-.23254-.308-.34625-.46411-.25555-.35071-.50366-.70715-.74957-1.06525-.11975-.17444-.24072-.3479-.35815-.524-.22815-.342-.44916-.68921-.6684-1.0376-.127-.2019-.25488-.40308-.37878-.607-.199-.32727-.3913-.659-.5824-.99152-.13446-.23425-.26959-.46814-.40015-.705-.1687-.30579-.3313-.61542-.49329-.92535-.14294-.27374-.28577-.54755-.42334-.82446-.13873-.27893-.27209-.561-.4054-.84308-.14868-.31525-.29651-.63086-.43829-.95-.11188-.25128-.21912-.50507-.3266-.75867-.15143-.35779-.3009-.71661-.44348-1.07892-.087-.2207-.17023-.44324-.254-.66559-.15118-.4021-.29919-.80585-.43945-1.2132-.06531-.18927-.12756-.37994-.19049-.57037-.14667-.44476-.28876-.8916-.4223-1.34222-.04767-.16052-.093-.32214-.139-.4834-.13782-.4845-.26965-.9715-.392-1.46228-.03333-.13354-.065-.26782-.09723-.40186q-.18723-.78085-.34937-1.57129c-.02264-.11121-.044-.2229-.06586-.33435q-.16168-.8269-.295-1.66382c-.01471-.093-.0285-.18622-.04266-.27942q-.1311-.8649-.23114-1.73981a45.43906,45.43906,0,0,1,.00037-10.5661q.09943-.87817.23218-1.746c.01386-.09076.02722-.18164.04156-.27228q.13284-.84119.29669-1.67181c.0213-.10858.04205-.21741.06415-.32574q.1615-.79449.3512-1.57837c.03174-.132.06287-.26416.0957-.39569.1228-.49268.25525-.98145.39362-1.46777.04553-.15961.09039-.31946.13757-.47839.13385-.45166.27637-.89947.4234-1.34528.06268-.18976.12482-.37976.18988-.56836.14087-.409.28955-.81427.44141-1.218.08289-.21985.1651-.43988.25116-.65808.14343-.36432.29376-.7251.446-1.08484.10712-.25262.21393-.50537.32538-.75574.142-.31927.28992-.63519.43878-.95068.13318-.28174.26636-.56329.405-.84186.13837-.2785.282-.55383.42578-.8291.16089-.30768.32227-.61505.48981-.91858.1319-.23932.26849-.47571.40448-.71246.19012-.33057.38123-.6604.57916-.98578.12476-.20532.25366-.40784.38153-.61108.21844-.34692.43854-.69275.66583-1.03345.11859-.17792.24084-.35315.36182-.5293.24475-.3562.49164-.71082.746-1.05981.11505-.158.23352-.31323.35046-.46967.26764-.35773.53778-.7135.81531-1.06323a46.7181,46.7181,0,0,1,7.5506-7.55c.35187-.27924.70978-.551,1.06976-.82019.15363-.11481.30609-.23108.46118-.34406.351-.2558.7077-.50421,1.066-.75031.175-.12012.34912-.24152.52582-.35931.34076-.22729.68665-.44745,1.03369-.666.20343-.12793.40619-.2569.61176-.38177.32526-.19775.655-.38885.98541-.57886.23645-.13574.47253-.27216.71155-.40393.30444-.168.61267-.32977.9212-.49109.27466-.14337.54926-.28668.82709-.42468.27844-.13849.55994-.27167.84155-.40472.31586-.149.6322-.29718.9519-.43921.25079-.11163.504-.21869.75714-.326.358-.15149.71686-.301,1.07935-.44366.221-.08716.44391-.17053.66657-.25439.40179-.15106.80518-.29889,1.21216-.439.18964-.06543.38062-.12787.57135-.19086.44476-.14667.8916-.28882,1.34216-.4223.16022-.04755.32135-.09277.4823-.13867.48486-.13788.97223-.26984,1.46344-.39227.13324-.03326.26715-.06488.40082-.097q.782-.1875,1.57355-.34991c.10986-.0224.22015-.04352.33026-.06506q.82819-.162,1.66626-.29553c.09314-.01477.18658-.02856.27991-.04272q.86444-.1311,1.73883-.231a45.43435,45.43435,0,0,1,10.56555,0q.8746.099,1.73883.231c.09332.01416.18677.028.27991.04272q.83835.13239,1.66626.29553c.11011.02155.2204.04266.33026.06506q.792.16095,1.57355.34991c.13367.0321.26758.06372.40082.097.49121.12244.97858.25439,1.46344.39227.16095.0459.32208.09113.4823.13867.45056.13348.8974.27563,1.34216.4223.19073.063.38171.12543.57135.19086.407.14014.81036.288,1.21216.439.22266.08386.44556.16724.66656.25439.36249.1427.72137.29218,1.07935.44366.25311.1073.50635.21436.75714.326.3197.142.636.29016.9519.43921.28162.13306.56311.26624.84155.40472.27783.138.55243.28131.82709.42468.30853.16132.61676.32312.9212.49109.239.13177.4751.26819.71155.40393.33044.19.66016.3811.98541.57886.20557.12488.40833.25385.61176.38177.347.21851.69293.43866,1.03369.666.1767.1178.35077.2392.52582.35931.35834.24609.715.49451,1.066.75031.15509.113.30756.22925.46118.34406.36.26917.7179.541,1.06976.82019a46.7181,46.7181,0,0,1,7.5506,7.55c.27753.34973.54767.70551.81531,1.06323.11694.15643.23541.31171.35046.46967.25433.349.50122.70361.746,1.05981.121.17615.24323.35138.36182.5293.22729.3407.44739.68652.66583,1.03345.12787.20325.25677.40576.38153.61108.19794.32538.389.65521.57916.98578.136.23676.27258.47314.40448.71246.16754.30353.32892.6109.48981.91858.14374.27527.28741.5506.42578.8291.13861.27856.27179.56012.405.84186.14886.31549.29681.63141.43878.95068.11145.25037.21826.50311.32538.75574.15228.35974.30261.72052.446,1.08484.08606.2182.16827.43823.25116.65808.15186.40375.30054.809.44141,1.218.06506.1886.1272.3786.18988.56836.147.4458.28955.89362.4234,1.34528.04718.15894.092.31879.13757.47839.13837.48633.27081.9751.39362,1.46777.03284.13153.064.26373.0957.39569q.18823.78442.3512,1.57837c.02209.10834.04285.21716.06415.32574q.1626.83093.29669,1.67181c.01434.09064.02771.18152.04156.27228q.13184.86792.23218,1.746a45.43906,45.43906,0,0,1,.00037,10.5661q-.09906.87506-.23114,1.73981c-.01416.0932-.028.18646-.04266.27942q-.1322.83725-.295,1.66382c-.02185.11145-.04321.22314-.06586.33435q-.16068.79092-.34937,1.57129c-.03223.134-.0639.26831-.09723.40186-.12231.49078-.25415.97778-.392,1.46228-.046.16125-.09131.32288-.139.4834-.13354.45062-.27563.89746-.4223,1.34222-.06293.19043-.12518.3811-.19049.57037-.14026.40735-.28827.8111-.43945,1.2132-.08374.22235-.16693.44489-.254.66559-.14258.3623-.29205.72113-.44348,1.07892-.10748.2536-.21472.50739-.3266.75867-.14178.31909-.28961.6347-.43829.95-.1333.2821-.26666.56415-.4054.84308-.13757.27692-.2804.55072-.42334.82446-.162.30994-.32458.61957-.49329.92535-.13055.23682-.26569.4707-.40015.705-.1911.33252-.38342.66425-.5824.99152-.1239.20392-.25183.40509-.37878.607-.21924.34839-.44025.69556-.6684,1.0376-.11743.17615-.2384.34961-.35815.524-.24591.35809-.494.71454-.74957,1.06525-.11371.15607-.23065.30951-.34625.46411-.26886.35956-.54028.71716-.81921,1.0686A46.71845,46.71845,0,0,1,278.85608,286.40418Z" transform="translate(-114.81012 -114.81012)"/><path class="cls-1" d="M250,203.5334A46.4666,46.4666,0,1,0,296.4666,250,46.46653,46.46653,0,0,0,250,203.5334Zm0,83.45022A36.98362,36.98362,0,1,1,286.98362,250,36.98367,36.98367,0,0,1,250,286.98362Z" transform="translate(-114.81012 -114.81012)"/><circle cx="135.18988" cy="135.18988" r="25.60405"/><path d="M384.24343,248.81555c-1.00595-1.25818-20.68243-25.52313-47.96973-34.55141,12.91026-25.67848,9.66542-56.7504,9.48773-58.35123l-.16855-1.50672-1.50579-.16762c-1.59933-.17769-32.6709-3.42311-58.35042,9.48784-9.02851-27.28741-33.294-46.9639-34.55222-47.96985L250,114.81012l-1.18445.94645c-1.25818,1.00595-25.5229,20.68232-34.55129,47.9695-25.67917-12.91211-56.75283-9.6675-58.35135-9.48749l-1.50672.16762-.16762,1.50672c-.1792,1.60083-3.423,32.67264,9.48807,58.35112-27.28753,9.02816-46.96413,33.29334-47.97008,34.55152L114.81012,250l.94645,1.18445c1.00595,1.25818,20.68243,25.52371,47.96973,34.55222-12.9106,25.67848-9.66692,56.74971-9.48773,58.35042l.16762,1.50579,1.50672.16855a104.78745,104.78745,0,0,0,10.80171.49082c11.65566,0,30.75046-1.55383,47.54385-9.99707,9.02342,27.29691,33.29855,46.98208,34.55708,47.98825L250,385.18988l1.18445-.94645c1.25842-1.00618,25.53378-20.69089,34.55766-47.98756,16.794,8.44358,35.88819,9.99637,47.54328,9.99637a104.84767,104.84767,0,0,0,10.80171-.49082l1.50579-.16855.16855-1.50579c.17769-1.60083,3.4223-32.67218-9.48738-58.35054,27.28718-9.02863,46.96344-33.29392,47.96938-34.5521L385.18988,250Zm-4.66185.38988H361.859a13.04418,13.04418,0,0,0-26.042,0h-25.151a62.00646,62.00646,0,0,0-.407-6.34487A115.53907,115.53907,0,0,0,324.57475,230.697a61.6245,61.6245,0,0,0,9.83408-12.98677C356.7245,224.94234,374.25551,243.19186,379.58159,249.20543ZM250,294.57A44.57,44.57,0,1,1,294.57,250,44.62033,44.62033,0,0,1,250,294.57Zm-36.813-75.884a48.13948,48.13948,0,0,0-11.37819,27.40051A108.13654,108.13654,0,0,1,178.10809,228.015a56.66069,56.66069,0,0,1-8.74617-11.41824,56.73085,56.73085,0,0,1,14.25723-1.88664A108.70763,108.70763,0,0,1,213.187,218.686Zm-11.37819,35.22779a48.13936,48.13936,0,0,0,11.37877,27.40074,108.70649,108.70649,0,0,1-29.56845,3.97621,56.65987,56.65987,0,0,1-14.25862-1.88988,56.73168,56.73168,0,0,1,8.74756-11.41592A108.15262,108.15262,0,0,1,201.80882,253.91381Zm96.38352-7.81154a48.14045,48.14045,0,0,0-11.37946-27.41637,108.70734,108.70734,0,0,1,29.568-3.97574,56.66131,56.66131,0,0,1,14.25607,1.88919,56.65723,56.65723,0,0,1-8.74409,11.41569A108.71746,108.71746,0,0,1,298.19234,246.10228Zm-11.37992,35.21239a48.13953,48.13953,0,0,0,11.37981-27.41556A108.748,108.748,0,0,1,321.89284,271.985a56.65864,56.65864,0,0,1,8.74606,11.4187,56.7269,56.7269,0,0,1-14.258,1.8871A108.70984,108.70984,0,0,1,286.81241,281.31467Zm45.70653-68.16829a61.63318,61.63318,0,0,0-16.13808-2.2294,115.78561,115.78561,0,0,0-18.73126,1.51858c-.92422-1.17079-1.90429-2.293-2.91047-3.39145l18.00134-18.00146a13.06172,13.06172,0,0,0,18.08029-18.0804l11.4914-11.4914C342.67529,171.44766,342.22279,194.13643,332.51894,213.14638Zm1.39617-55.54338c2.76467,0,5.0552.08659,6.72155.17954l-12.34234,12.34234a13.05178,13.05178,0,0,0-18.39122,18.39145l-17.81358,17.81358c-1.44595-1.39385-2.94526-2.73284-4.52409-3.97922a115.80133,115.80133,0,0,0,1.51853-18.73155,61.62867,61.62867,0,0,0-2.23021-16.14074C303.33424,159.06561,322.58323,157.603,333.91511,157.603Zm-48.62435,26.01615a108.70649,108.70649,0,0,1-3.97621,29.56845,48.13969,48.13969,0,0,0-27.40074-11.37877A108.15262,108.15262,0,0,1,271.985,178.10809a56.6443,56.6443,0,0,1,11.421-8.73761A56.72285,56.72285,0,0,1,285.29076,183.61914Zm-2.99642-18.02993a61.63123,61.63123,0,0,0-12.99129,9.837,117.89347,117.89347,0,0,0-12.2017,14.31036c-1.71323-.1998-3.4524-.30989-5.20476-.36846V164.06987a13.04407,13.04407,0,0,0,0-25.81588V121.4092C258.78866,127.68773,275.46178,144.48587,282.29434,165.58921ZM248.1034,121.41244V138.254a13.04407,13.04407,0,0,0,0,25.81588v25.29821c-1.75213.05857-3.49083.16889-5.20383.36869A117.8909,117.8909,0,0,0,230.697,175.42618a61.6258,61.6258,0,0,0-12.98677-9.83512C224.54459,144.50266,241.21192,127.69665,248.1034,121.41244Zm-31.50417,47.95109a56.65805,56.65805,0,0,1,11.41581,8.74455,108.13654,108.13654,0,0,1,18.07149,23.70074A48.13948,48.13948,0,0,0,218.686,213.187a108.70763,108.70763,0,0,1-3.97586-29.56787A56.65761,56.65761,0,0,1,216.59924,169.36353Zm-3.453-1.882a61.62964,61.62964,0,0,0-2.22929,16.13762A115.80681,115.80681,0,0,0,212.4355,202.35c-1.57918,1.24661-3.07884,2.58583-4.525,3.98L190.0969,188.51633a13.05178,13.05178,0,0,0-18.39122-18.39145L159.36311,157.7823C167.86654,157.308,192.64927,157.01806,213.14626,167.48152Zm-55.45934-6.0116,11.49233,11.49233a13.06172,13.06172,0,0,0,18.08029,18.0804l18.00134,18.00146c-1.00606,1.09844-1.98654,2.22061-2.91076,3.39139a115.79518,115.79518,0,0,0-18.731-1.51853,61.63051,61.63051,0,0,0-16.13774,2.22929C157.77675,194.13585,157.324,171.44627,157.68692,161.46992Zm7.90252,56.23643a61.6271,61.6271,0,0,0,9.83674,12.99059,117.89149,117.89149,0,0,0,14.3099,12.202,62.03145,62.03145,0,0,0-.40238,6.30644H164.183a13.04418,13.04418,0,0,0-26.042,0H120.41621C125.73743,243.19186,143.2579,224.93632,165.58944,217.70636Zm-43.15717,35.29227h16.02811a13.04769,13.04769,0,0,0,25.4032,0h25.539c.07165,1.37869.176,2.74847.334,4.10273a117.89347,117.89347,0,0,0-14.31036,12.2017,61.62685,61.62685,0,0,0-9.835,12.98758C145.56359,275.79968,129.39391,260.43359,122.43227,252.99862Zm45.045,33.85489a61.632,61.632,0,0,0,16.1419,2.23045,115.78365,115.78365,0,0,0,18.73224-1.51864c1.24649,1.579,2.58478,3.0785,3.97875,4.52433l-17.81358,17.81369a13.05179,13.05179,0,0,0-18.39133,18.39145l-12.34408,12.34408C157.304,332.13983,157.00163,307.36045,167.47724,286.85351Zm-6.00616,55.45934,11.49175-11.49175a13.0617,13.0617,0,0,0,18.08006-18.08029l18.00146-18.00146c1.09844,1.00606,2.22055,1.98614,3.39122,2.91036a115.79725,115.79725,0,0,0-1.51858,18.73114,61.63162,61.63162,0,0,0,2.22963,16.13924C194.13689,342.2251,171.4487,342.677,161.47108,342.31285Zm53.23908-25.932a108.708,108.708,0,0,1,3.97574-29.568,48.14035,48.14035,0,0,0,27.41533,11.37946,108.71865,108.71865,0,0,1-18.08619,23.7005,56.65929,56.65929,0,0,1-11.41778,8.74664A56.72545,56.72545,0,0,1,214.71016,316.38086Zm2.98855,18.00643a61.56235,61.56235,0,0,0,12.99823-9.81255A115.7737,115.7737,0,0,0,242.86664,310.259c1.72377.202,3.47341.31365,5.23676.37257V335.93a13.04414,13.04414,0,0,0,0,25.816v16.84456C241.209,372.30926,224.52641,355.50093,217.69872,334.38729Zm34.19788,44.20039V361.746a13.04414,13.04414,0,0,0,0-25.816V310.63157c1.7637-.05892,3.514-.17,5.2381-.37211a115.81229,115.81229,0,0,0,12.16836,14.31528,61.56549,61.56549,0,0,0,12.99534,9.81116C275.46838,355.4853,258.79063,372.30173,251.8966,378.58768ZM283.40134,330.638a56.656,56.656,0,0,1-11.41639-8.74513,108.72373,108.72373,0,0,1-18.08573-23.70062,48.14,48.14,0,0,0,27.41544-11.37981,108.70984,108.70984,0,0,1,3.97609,29.56845A56.65905,56.65905,0,0,1,283.40134,330.638Zm3.45286,1.88178a61.62974,61.62974,0,0,0,2.22975-16.13889,115.80113,115.80113,0,0,0-1.51864-18.73155c1.17044-.924,2.29214-1.90424,3.39023-2.91l18.00157,18.00146a13.0617,13.0617,0,0,0,18.08006,18.08029l11.4914,11.4914C328.54956,342.6761,305.86241,342.22279,286.8542,332.51975Zm55.36234,8.11691-12.34176-12.34188a13.05179,13.05179,0,0,0-18.39133-18.39145l-17.81369-17.81369c1.39385-1.44595,2.73307-2.94549,3.97956-4.52433a115.80113,115.80113,0,0,0,18.73155,1.51864,61.63105,61.63105,0,0,0,16.13843-2.22963C342.9824,307.35235,342.69,332.13532,342.21654,340.63666Zm-7.80517-58.34255a61.62618,61.62618,0,0,0-9.83662-12.99106,115.78856,115.78856,0,0,0-14.31627-12.16894c.16-1.36515.26625-2.74557.3386-4.13549h25.53934a13.04769,13.04769,0,0,0,25.4032,0h16.032C370.61512,260.4344,354.45238,275.805,334.41137,282.29411Z" transform="translate(-114.81012 -114.81012)"/></svg>