<svg id="Слой_1" data-name="Слой 1" xmlns="http://www.w3.org/2000/svg" viewBox="0 0 300 300"><defs><style>.cls-1{fill:#72cbf1;}.cls-2{fill:#59ce48;}</style></defs><title>sign_color</title><path class="cls-1" d="M217.83529,209.7206a104.79977,104.79977,0,0,1-2.0335-20.7719c0-33.715,34.19821-61.0463,34.19821-61.0463s34.19819,27.3313,34.19819,61.0463a104.79978,104.79978,0,0,1-2.0335,20.7719,51.50671,51.50671,0,0,0-64.3294,0ZM198.443,250a51.32465,51.32465,0,0,1,11.28039-32.1682,104.80774,104.80774,0,0,0-20.771-2.0335c-33.715,0-61.0465,34.1981-61.0465,34.1981s27.3315,34.1981,61.0465,34.1981a104.8088,104.8088,0,0,0,20.7662-2.0325A51.32445,51.32445,0,0,1,198.443,250ZM250,301.557a51.3247,51.3247,0,0,1-32.16561-11.2785,104.80151,104.80151,0,0,0-2.0326,20.7655c0,33.7151,34.19821,61.0465,34.19821,61.0465s34.19819-27.3314,34.19819-61.0465a104.80152,104.80152,0,0,0-2.0326-20.7655A51.32469,51.32469,0,0,1,250,301.557Zm61.04759-85.7587a104.80783,104.80783,0,0,0-20.771,2.0335,51.50676,51.50676,0,0,1,.0048,64.3302,104.8088,104.8088,0,0,0,20.7662,2.0325c33.715,0,61.0465-34.1981,61.0465-34.1981S344.76259,215.7983,311.04759,215.7983Z" transform="translate(-100 -100)"/><path class="cls-2" d="M182.6511,231.0109c-23.8401-23.8401-18.9847-67.348-18.9847-67.348s43.5079-4.8556,67.3482,18.9845a104.81352,104.81352,0,0,1,13.2466,16.1211,51.56468,51.56468,0,0,0-45.492,45.487A104.81334,104.81334,0,0,1,182.6511,231.0109Zm118.5797,13.2446a104.81334,104.81334,0,0,0,16.1181-13.2446c23.84011-23.8401,18.9847-67.348,18.9847-67.348s-43.5079-4.8556-67.3482,18.9845a104.81352,104.81352,0,0,0-13.2466,16.1211A51.56468,51.56468,0,0,1,301.23079,244.2555Zm.0008,11.4824a51.5648,51.5648,0,0,1-45.4881,45.493,104.81258,104.81258,0,0,0,13.2419,16.1144c23.8403,23.8401,67.3482,18.9847,67.3482,18.9847s4.85541-43.508-18.9847-67.3481A104.814,104.814,0,0,0,301.23159,255.7379Zm-102.4632,0a104.814,104.814,0,0,0-16.1173,13.244C158.811,292.822,163.6664,336.33,163.6664,336.33s43.5079,4.8554,67.3482-18.9847a104.81258,104.81258,0,0,0,13.2419-16.1144A51.5648,51.5648,0,0,1,198.7684,255.7379Z" transform="translate(-100 -100)"/><path class="cls-1" d="M250,198.4429A51.55705,51.55705,0,1,0,301.557,250,51.55695,51.55695,0,0,0,250,198.4429Zm0,92.5923A41.0352,41.0352,0,1,1,291.03519,250,41.03528,41.03528,0,0,1,250,291.0352Z" transform="translate(-100 -100)"/><circle cx="150" cy="149.99998" r="28.40898"/><path d="M398.94989,248.6858c-1.1162-1.3961-22.9482-28.3192-53.22489-38.3366,14.32459-28.4915,10.72429-62.9674,10.52709-64.7436l-.187-1.6718-1.6707-.186c-1.7746-.1971-36.25-3.7981-64.7428,10.5273-10.01759-30.2768-36.9414-52.1089-38.3374-53.225L250,100l-1.31421,1.0501c-1.396,1.1161-28.3189,22.9481-38.3364,53.2246-28.4923-14.3267-62.9701-10.7266-64.7438-10.5269l-1.6718.186-.1859,1.6718c-.1989,1.7762-3.798,36.2519,10.5275,64.7435-30.2769,10.0172-52.1091,36.9406-53.2253,38.3367L100,250l1.0501,1.3142c1.1162,1.396,22.9482,28.3198,53.2249,38.3374-14.325,28.4916-10.726,62.9667-10.5271,64.7427l.1859,1.6708,1.6718.187a116.27173,116.27173,0,0,0,11.9851.5446c12.9325,0,34.1192-1.7241,52.7523-11.0923,10.01189,30.2873,36.94639,52.129,38.34279,53.2454L250,400l1.31419-1.0502c1.3963-1.1164,28.331-22.9576,38.3435-53.2446,18.6337,9.3686,39.8197,11.0915,52.7516,11.0915a116.33893,116.33893,0,0,0,11.9851-.5446l1.6707-.187.187-1.6708c.1972-1.7762,3.7973-36.2514-10.5267-64.7428,30.2765-10.0177,52.1083-36.9413,53.2245-38.3373L400,250Zm-5.1726.4325h-19.6641a14.47319,14.47319,0,0,0-28.8949,0h-27.9062a68.83105,68.83105,0,0,0-.4516-7.0399,128.19809,128.19809,0,0,0,15.8839-13.4961,68.37945,68.37945,0,0,0,10.9115-14.4095C368.41619,222.1972,387.86779,242.446,393.77729,249.1183ZM250,299.4526A49.45265,49.45265,0,1,1,299.45269,250,49.50851,49.50851,0,0,1,250,299.4526Zm-40.84591-84.1971a53.41371,53.41371,0,0,0-12.6246,30.4023,119.98152,119.98152,0,0,1-26.2972-20.0513,62.86292,62.86292,0,0,1-9.7043-12.6691,62.94736,62.94736,0,0,1,15.8191-2.0933A120.61688,120.61688,0,0,1,209.15409,215.2555Zm-12.6246,39.087a53.41258,53.41258,0,0,0,12.6253,30.4025,120.61394,120.61394,0,0,1-32.8077,4.4118,62.866,62.866,0,0,1-15.8207-2.0969,62.94611,62.94611,0,0,1,9.7059-12.6665A119.998,119.998,0,0,1,196.5295,254.3425Zm106.9423-8.6673a53.41376,53.41376,0,0,0-12.6261-30.4198,120.61791,120.61791,0,0,1,32.8072-4.4113,62.86563,62.86563,0,0,1,15.8178,2.0962,62.8595,62.8595,0,0,1-9.702,12.6662A120.62385,120.62385,0,0,1,303.47179,245.6752Zm-12.6266,39.07a53.41318,53.41318,0,0,0,12.6265-30.419,120.66061,120.66061,0,0,1,26.297,20.0672,62.8647,62.8647,0,0,1,9.7042,12.6696,62.94168,62.94168,0,0,1-15.82,2.0938A120.62028,120.62028,0,0,1,290.84519,284.7452Zm50.7137-75.6362a68.38664,68.38664,0,0,0-17.906-2.4736,128.47645,128.47645,0,0,0-20.7833,1.6849c-1.0254-1.299-2.1129-2.5442-3.2293-3.763l19.9734-19.9735a14.49263,14.49263,0,0,0,20.061-20.0611L352.425,151.7724C352.82789,162.8422,352.32579,188.0165,341.55889,209.109Zm1.5492-61.6282c3.0675,0,5.609.0961,7.45791.1992l-13.69451,13.6945a14.48161,14.48161,0,0,0-20.406,20.4062l-19.7651,19.7651c-1.6043-1.5466-3.2679-3.0322-5.0197-4.4152a128.4774,128.4774,0,0,0,1.6849-20.7836,68.379,68.379,0,0,0-2.4745-17.9089C309.177,149.1037,330.53479,147.4808,343.10809,147.4808Zm-53.9512,28.8662a120.61648,120.61648,0,0,1-4.4118,32.8077,53.41343,53.41343,0,0,0-30.4025-12.6253,120.00212,120.00212,0,0,1,20.0508-26.2972,62.85529,62.85529,0,0,1,12.6722-9.6948A62.93416,62.93416,0,0,1,289.15689,176.347Zm-3.3247-20.0051a68.38517,68.38517,0,0,0-14.4145,10.9146,130.8193,130.8193,0,0,0-13.5384,15.8781c-1.9009-.2217-3.8306-.3438-5.7749-.4088V154.6561a14.47305,14.47305,0,0,0,0-28.644V107.322C259.75149,114.2883,278.25109,132.9267,285.83219,156.3419Zm-37.9366-49.0163v18.6865a14.47305,14.47305,0,0,0,0,28.644v28.0697c-1.944.065-3.8732.1874-5.7739.4091a130.79435,130.79435,0,0,0-13.5394-15.8784,68.38092,68.38092,0,0,0-14.4095-10.9125C221.75589,132.9453,240.24919,114.2982,247.89559,107.3256Zm-34.9554,53.2041a62.86807,62.86807,0,0,1,12.6664,9.7025,119.98568,119.98568,0,0,1,20.0512,26.2972,53.41256,53.41256,0,0,0-30.4022,12.6247,120.61365,120.61365,0,0,1-4.4115-32.8071A62.86227,62.86227,0,0,1,212.94019,160.5297Zm-3.8313-2.0882a68.384,68.384,0,0,0-2.4735,17.9055,128.49466,128.49466,0,0,0,1.6849,20.7829c-1.7522,1.3831-3.4161,2.8691-5.0207,4.416l-19.7651-19.7652a14.48161,14.48161,0,0,0-20.406-20.4062l-13.6947-13.6947C158.8688,147.1535,186.3665,146.8318,209.10889,158.4415ZM147.574,151.7714l12.7513,12.7513a14.49263,14.49263,0,0,0,20.061,20.0611l19.9734,19.9735c-1.1163,1.2188-2.2042,2.4639-3.22969,3.7629a128.4821,128.4821,0,0,0-20.7829-1.6848,68.37938,68.37938,0,0,0-17.9056,2.4735C147.6736,188.0159,147.1713,162.8406,147.574,151.7714Zm8.7682,62.3971a68.38117,68.38117,0,0,0,10.9144,14.4138,130.80833,130.80833,0,0,0,15.8775,13.5387,68.84634,68.84634,0,0,0-.4464,6.9973h-27.906a14.47319,14.47319,0,0,0-28.8949,0H106.2202C112.1244,242.446,131.5643,222.1905,156.3422,214.1685Zm-47.885,39.1586h17.784a14.47705,14.47705,0,0,0,28.1861,0h28.3368c.0795,1.5297.1952,3.0495.3706,4.5522a130.79513,130.79513,0,0,0-15.8781,13.5384,68.37526,68.37526,0,0,0-10.9125,14.4104C134.1225,278.626,116.1814,261.5766,108.4572,253.3271Zm49.9796,37.5637a68.38488,68.38488,0,0,0,17.9103,2.4748,128.47778,128.47778,0,0,0,20.7844-1.685c1.383,1.7519,2.8679,3.4157,4.4146,5.0199L181.781,316.4657a14.48164,14.48164,0,0,0-20.4061,20.4063l-13.6964,13.6964C147.1491,341.1383,146.8136,313.6443,158.4368,290.8908Zm-6.6641,61.5349,12.7507-12.7506a14.49262,14.49262,0,0,0,20.0607-20.061l19.9735-19.9736c1.2188,1.1163,2.4638,2.2038,3.7628,3.2292a128.475,128.475,0,0,0-1.685,20.7832,68.38422,68.38422,0,0,0,2.4739,17.9073C188.0171,352.3284,162.8434,352.8298,151.7727,352.4257Zm59.0714-28.7728a120.61738,120.61738,0,0,1,4.4113-32.8072,53.41445,53.41445,0,0,0,30.4187,12.6261,120.62786,120.62786,0,0,1-20.0675,26.2969,62.87115,62.87115,0,0,1-12.66859,9.7048A62.9367,62.9367,0,0,1,210.84409,323.6529Zm3.316,19.979a68.30619,68.30619,0,0,0,14.4222-10.8875,128.46127,128.46127,0,0,0,13.5029-15.884c1.9126.2241,3.8539.348,5.8104.4134v28.0698a14.47317,14.47317,0,0,0,0,28.6442v18.6899C240.246,385.7083,221.73579,367.0586,214.16009,343.6319Zm37.9443,49.0426V373.9878a14.47317,14.47317,0,0,0,0-28.6442V317.2738c1.9569-.0654,3.8989-.1887,5.8119-.4129a128.5063,128.5063,0,0,0,13.5014,15.8835,68.30852,68.30852,0,0,0,14.419,10.886C278.25839,367.0412,259.75359,385.6999,252.10439,392.6745Zm34.9561-53.2026a62.86293,62.86293,0,0,1-12.6671-9.7032,120.63793,120.63793,0,0,1-20.067-26.297,53.41421,53.41421,0,0,0,30.4188-12.6265,120.61937,120.61937,0,0,1,4.4117,32.8077A62.86726,62.86726,0,0,1,287.06049,339.4719Zm3.8311,2.0879a68.38162,68.38162,0,0,0,2.474-17.9069,128.48862,128.48862,0,0,0-1.685-20.7836c1.2987-1.0252,2.5433-2.1129,3.7616-3.2288l19.9737,19.9736a14.49262,14.49262,0,0,0,20.0607,20.061l12.7503,12.7502C337.15469,352.8288,311.98219,352.3258,290.89159,341.5598Zm61.4273,9.0061-13.6938-13.6939A14.48163,14.48163,0,0,0,318.219,316.4657l-19.76521-19.7652c1.5465-1.6043,3.0325-3.2681,4.4155-5.0199a128.49046,128.49046,0,0,0,20.7836,1.685,68.38135,68.38135,0,0,0,17.9064-2.4739C353.16869,313.6353,352.84419,341.1332,352.31889,350.5659Zm-8.6602-64.734a68.38025,68.38025,0,0,0-10.9143-14.4142,128.46508,128.46508,0,0,0-15.8846-13.5021c.1775-1.5147.2954-3.0463.3757-4.5885h28.3372a14.47705,14.47705,0,0,0,28.1861,0h17.7884C383.82859,261.5775,365.89519,278.6319,343.65869,285.8319Z" transform="translate(-100 -100)"/></svg>