<svg id="Слой_1" data-name="Слой 1" xmlns="http://www.w3.org/2000/svg" viewBox="0 0 300 388.34268"><title>logo Yoga_line</title><path d="M131.0148,333.75222l20.39145,30.53273,20.39146-30.53273c4.32057-6.13493,13.6645.42854,9.54548,6.61686-29.03123,43.35187-24.18768,26.8124-24.18768,72.02034,0,7.62791-11.49759,7.58245-11.49759,0,0-45.20911,4.8271-28.67691-24.13369-72.02034C117.3421,333.98387,126.88759,327.699,131.0148,333.75222Zm109.49665,54.01663c0,40.12784-60.74056,40.297-60.74056,0C179.77088,348.2899,240.15283,346.68889,240.51145,387.76885ZM210.14071,368.7328c-25.17922,0-25.17546,38.0721,0,38.0721C235.30638,406.8049,235.29289,368.7328,210.14071,368.7328Zm88.45266,42.73594c-29.38394,24.08829-67.61763-18.07023-40.512-45.17584a30.24358,30.24358,0,0,1,42.95375,0c11.19279,11.19279,8.89386,20.72534,8.89386,51.628,0,10.30719-6.6726,18.58246-15.70108,22.91465-25.89332,12.40322-49.61972-13.23443-42.05686-20.66327,5.89234-5.80276,9.68787,3.38666,12.90791,6.48141a21.05233,21.05233,0,0,0,29.77312.108C299.33642,421.30341,298.59337,418.43026,298.59337,411.46873ZM279.55915,368.7328c-25.15117,0-25.19384,38.0721,0,38.0721C304.685,406.8049,304.733,368.7328,279.55915,368.7328Zm88.45175,43.76644c0-2.78957.36856.556-8.839,3.90422a30.18622,30.18622,0,0,1-31.67306-7.15865c-28.32388-28.32388,14.19668-71.367,42.95375-42.95192,11.0292,11.0292,8.89386,20.91949,8.89386,46.20635C379.3465,419.984,368.01089,419.96274,368.01089,412.49924ZM348.97667,368.7328c-25.15117,0-25.19384,38.0721,0,38.0721C374.10248,406.8049,374.15048,368.7328,348.97667,368.7328Z" transform="translate(-100 -55.82866)"/><circle cx="150" cy="150" r="28.40898"/><path d="M398.94987,204.51446c-1.11615-1.396-22.94821-28.3192-53.22484-38.33653,14.32458-28.49157,10.72427-62.96744,10.52711-64.74364l-.187-1.67178-1.67075-.186c-1.77453-.19716-36.25-3.79811-64.74274,10.52724C279.634,79.827,252.71022,57.99494,251.3142,56.87879L250,55.82866l-1.3142,1.05013c-1.396,1.11615-28.31895,22.94808-38.3364,53.22458-28.49234-14.32664-62.97013-10.72658-64.74377-10.52685l-1.67178.186-.186,1.67178c-.19883,1.7762-3.798,36.25194,10.5275,64.74351-30.27689,10.0172-52.10908,36.94064-53.22523,38.33666L100,205.82866l1.05013,1.3142c1.11615,1.396,22.94821,28.31984,53.22484,38.33743C139.95,273.97186,143.549,308.447,143.74786,310.223l.186,1.67075,1.67178.187a116.267,116.267,0,0,0,11.985.54459c12.93254,0,34.11919-1.72406,52.75231-11.09225,10.01194,30.2873,36.94642,52.129,38.34283,53.24539L250,355.82866l1.3142-1.05013c1.39628-1.1164,28.331-22.95758,38.34347-53.24462,18.63376,9.36858,39.81976,11.09148,52.75167,11.09148a116.33383,116.33383,0,0,0,11.985-.54459l1.67075-.187.187-1.67075c.19716-1.7762,3.79721-36.25143-10.52673-64.74287,30.27651-10.01772,52.10831-36.94128,53.22446-38.3373L400,205.82866Zm-5.17256.43259H374.1132a14.47317,14.47317,0,0,0-28.89487,0H317.31207a68.7993,68.7993,0,0,0-.4516-7.04,128.19644,128.19644,0,0,0,15.884-13.49614,68.3755,68.3755,0,0,0,10.91141-14.40948C368.41623,178.02592,387.86777,198.27469,393.77732,204.947ZM250,255.28133a49.45267,49.45267,0,1,1,49.45267-49.45267A49.50851,49.50851,0,0,1,250,255.28133Zm-40.84587-84.19711a53.41318,53.41318,0,0,0-12.62467,30.40225,119.983,119.983,0,0,1-26.29716-20.05123,62.86789,62.86789,0,0,1-9.70432-12.66911,62.94574,62.94574,0,0,1,15.81912-2.09332A120.61661,120.61661,0,0,1,209.15413,171.08422Zm-12.62467,39.087a53.41305,53.41305,0,0,0,12.62532,30.40251,120.61534,120.61534,0,0,1-32.80768,4.4118,62.867,62.867,0,0,1-15.82066-2.09692,62.94666,62.94666,0,0,1,9.70586-12.66654A120.00079,120.00079,0,0,1,196.52945,210.17123Zm106.94238-8.66729a53.41426,53.41426,0,0,0-12.62609-30.41985,120.61628,120.61628,0,0,1,32.80717-4.41129,62.86858,62.86858,0,0,1,15.81783,2.09615,62.86406,62.86406,0,0,1-9.702,12.66629A120.62751,120.62751,0,0,1,303.47183,201.50394Zm-12.6266,39.06993a53.41324,53.41324,0,0,0,12.62647-30.41895,120.66134,120.66134,0,0,1,26.297,20.06716,62.86562,62.86562,0,0,1,9.70419,12.66963,62.94136,62.94136,0,0,1-15.82,2.09384A120.61906,120.61906,0,0,1,290.84523,240.57387Zm50.7137-75.63617a68.38513,68.38513,0,0,0-17.906-2.47364,128.47,128.47,0,0,0-20.78328,1.68495c-1.02547-1.299-2.11291-2.54421-3.22932-3.763l19.9734-19.97352a14.49263,14.49263,0,0,0,20.061-20.06112L352.425,107.6011C352.82792,118.67087,352.32584,143.8452,341.55893,164.9377Zm1.54912-61.62819c3.06754,0,5.609.09607,7.4579.19921L336.8715,117.20318a14.48161,14.48161,0,0,0-20.406,20.40624l-19.76507,19.76507c-1.60435-1.54655-3.26791-3.03222-5.01971-4.41514a128.48742,128.48742,0,0,0,1.68488-20.7836,68.38012,68.38012,0,0,0-2.47453-17.909C309.177,104.93236,330.53476,103.30951,343.10805,103.30951Zm-53.95117,28.86623a120.61534,120.61534,0,0,1-4.4118,32.80768,53.41342,53.41342,0,0,0-30.40251-12.62532,120.00079,120.00079,0,0,1,20.05085-26.29716,62.84971,62.84971,0,0,1,12.6722-9.69482A62.93687,62.93687,0,0,1,289.15688,132.17574Zm-3.32468-20.00512a68.383,68.383,0,0,0-14.41449,10.91462,130.80877,130.80877,0,0,0-13.5384,15.87807c-1.90092-.22169-3.83061-.34384-5.77494-.40883V110.48484a14.47306,14.47306,0,0,0,0-28.644V63.15067C259.75146,70.117,278.25113,88.75541,285.8322,112.17062ZM247.89563,63.15426V81.84081a14.47306,14.47306,0,0,0,0,28.644v28.06964c-1.94408.065-3.87325.18739-5.77391.40908a130.80593,130.80593,0,0,0-13.53943-15.87833,68.37694,68.37694,0,0,0-14.40948-10.91256C221.75594,88.774,240.24918,70.12691,247.89563,63.15426Zm-34.95547,53.20416a62.865,62.865,0,0,1,12.66642,9.70252,119.983,119.983,0,0,1,20.05123,26.29716,53.41318,53.41318,0,0,0-30.40225,12.62467,120.61661,120.61661,0,0,1-4.41142-32.807A62.86447,62.86447,0,0,1,212.94017,116.35843Zm-3.83125-2.08819a68.38119,68.38119,0,0,0-2.47351,17.9055,128.49351,128.49351,0,0,0,1.68488,20.78283c-1.75219,1.38318-3.41613,2.8691-5.02074,4.416l-19.76507-19.76519a14.48161,14.48161,0,0,0-20.406-20.40624l-13.69471-13.69471C158.86877,102.98225,186.36647,102.6605,209.10891,114.27024ZM147.574,107.60007l12.75132,12.75132a14.49263,14.49263,0,0,0,20.061,20.06112l19.9734,19.97352c-1.11628,1.21877-2.20417,2.46387-3.22964,3.76292a128.4806,128.4806,0,0,0-20.783-1.68488,68.38216,68.38216,0,0,0-17.90563,2.47351C147.67364,143.84456,147.17131,118.66933,147.574,107.60007Zm8.76825,62.39716A68.37838,68.37838,0,0,0,167.25658,184.411a130.80657,130.80657,0,0,0,15.87756,13.53878,68.827,68.827,0,0,0-.44646,6.99731h-27.906a14.47317,14.47317,0,0,0-28.89487,0H106.22024C112.1244,198.27469,131.56425,178.01924,156.34222,169.99723Zm-47.88506,39.15855h17.784a14.47707,14.47707,0,0,0,28.18614,0h28.3368c.0795,1.52973.19523,3.04956.37055,4.55219a130.80876,130.80876,0,0,0-15.87807,13.5384,68.3781,68.3781,0,0,0-10.91243,14.41038C134.12253,234.45471,116.18145,217.40526,108.45716,209.15578Zm49.97966,37.56371a68.38379,68.38379,0,0,0,17.91026,2.47479,128.46781,128.46781,0,0,0,20.78437-1.685c1.383,1.75193,2.86795,3.41575,4.41463,5.02L181.781,272.29443a14.48162,14.48162,0,0,0-20.40611,20.40624l-13.69638,13.69638C147.14909,296.967,146.81361,269.473,158.43683,246.71949Zm-6.66413,61.53494,12.75067-12.75067a14.49262,14.49262,0,0,0,20.06074-20.061l19.97352-19.97352c1.21877,1.11628,2.46381,2.20372,3.76273,3.22919a128.48289,128.48289,0,0,0-1.68495,20.78315,68.3834,68.3834,0,0,0,2.47389,17.9073C188.01706,308.15707,162.84336,308.6585,151.77269,308.25443Zm59.07145-28.77285a120.617,120.617,0,0,1,4.41129-32.80717,53.41415,53.41415,0,0,0,30.41869,12.62609,120.62884,120.62884,0,0,1-20.06754,26.29691,62.86635,62.86635,0,0,1-12.6686,9.70484A62.93975,62.93975,0,0,1,210.84415,279.48158Zm3.31595,19.979a68.30653,68.30653,0,0,0,14.4222-10.88752,128.45677,128.45677,0,0,0,13.50288-15.884c1.91261.22413,3.85392.348,5.81046.41339v28.0699a14.47313,14.47313,0,0,0,0,28.64416V348.5064C240.246,341.537,221.73577,322.88727,214.16009,299.46062Zm37.94428,49.04256V329.81651a14.47313,14.47313,0,0,0,0-28.64416v-28.0699c1.95692-.06538,3.89894-.18861,5.81193-.41287a128.49957,128.49957,0,0,0,13.50141,15.88353,68.31,68.31,0,0,0,14.419,10.886C278.25845,322.86993,259.75364,341.52861,252.10437,348.50319Zm34.95611-53.20262a62.8627,62.8627,0,0,1-12.66706-9.70317,120.63447,120.63447,0,0,1-20.067-26.297,53.41372,53.41372,0,0,0,30.41882-12.62647,120.61906,120.61906,0,0,1,4.41167,32.80768A62.86608,62.86608,0,0,1,287.06048,295.30056Zm3.83112,2.08793a68.38131,68.38131,0,0,0,2.474-17.90692,128.4872,128.4872,0,0,0-1.685-20.7836c1.29866-1.02521,2.54325-2.11285,3.76164-3.22874l19.97365,19.97352a14.49262,14.49262,0,0,0,20.06074,20.061L348.22692,308.254C337.15471,308.65748,311.98217,308.1545,290.8916,297.38849Zm61.42731,9.00612L338.6251,292.70067A14.48162,14.48162,0,0,0,318.219,272.29443l-19.76519-19.76519c1.54655-1.60435,3.03248-3.26817,4.41553-5.02a128.4872,128.4872,0,0,0,20.7836,1.685,68.38277,68.38277,0,0,0,17.9064-2.47389C353.16867,269.464,352.84423,296.96194,352.31891,306.39461Zm-8.66023-64.734a68.37736,68.37736,0,0,0-10.91423-14.41423,128.47326,128.47326,0,0,0-15.88462-13.502c.1775-1.5147.29541-3.04635.37569-4.58854H345.5727a14.47707,14.47707,0,0,0,28.18614,0H391.5472C383.82857,217.40616,365.8952,234.46061,343.65868,241.6606Z" transform="translate(-100 -55.82866)"/></svg>